<svg width="47" height="49" viewBox="0 0 47 49" fill="none" xmlns="http://www.w3.org/2000/svg">
<path d="M21.1982 17.214C20.6368 17.3742 20.1026 17.6049 19.6051 17.8966C19.4767 17.7841 19.374 17.6352 19.3128 17.4575L16.4233 9.07489C16.2392 8.54063 16.5001 7.94996 17.0061 7.75557C17.1161 7.71321 17.2287 7.69336 17.3392 7.69336C17.7374 7.69336 18.1113 7.95286 18.2553 8.37069L21.1448 16.7533C21.1973 16.9058 21.2136 17.0629 21.1982 17.214Z" fill="#34C347"/>
<path d="M16.1207 2.19088C15.9366 1.65669 15.3772 1.38126 14.8713 1.57569C14.3654 1.77012 14.1046 2.36078 14.2887 2.89497L15.4517 6.2689C15.6358 6.80309 16.1952 7.07852 16.7011 6.88409C17.207 6.68966 17.4679 6.099 17.2837 5.56482L16.1207 2.19088Z" fill="#34C347"/>
<path d="M16.1571 22.5681C16.0131 23.1433 15.932 23.7453 15.9219 24.3658C15.7648 24.4273 15.5908 24.4469 15.4141 24.4139L7.09414 22.8649C6.5641 22.7661 6.21013 22.2324 6.30344 21.6724C6.38688 21.1733 6.79817 20.8218 7.26241 20.8218C7.31858 20.8218 7.37544 20.8269 7.43275 20.8375L15.7527 22.3866C15.904 22.4146 16.0409 22.4783 16.1571 22.5681Z" fill="#34C347"/>
<path d="M1.29853 19.6953C0.768345 19.5966 0.262758 19.9704 0.169272 20.5303C0.0757856 21.0901 0.429802 21.624 0.959989 21.7227L4.30866 22.3462C4.83885 22.4449 5.34443 22.0711 5.43792 21.5112C5.53141 20.9514 5.17739 20.4175 4.6472 20.3188L1.29853 19.6953Z" fill="#34C347"/>
<path d="M19.3863 30.9692C19.3581 31.143 19.2872 31.3113 19.1721 31.4563L13.7417 38.2899C13.3958 38.7254 12.7809 38.7822 12.3685 38.4167C12.1388 38.2131 12.0203 37.9214 12.0203 37.6278C12.0203 37.3942 12.095 37.1596 12.2484 36.9667L17.6788 30.1331C17.778 30.0082 17.8993 29.9145 18.0316 29.853C18.4378 30.2798 18.8927 30.655 19.3863 30.9692Z" fill="#34C347"/>
<path d="M8.24023 42.0035C7.89417 42.439 7.94797 43.0882 8.36038 43.4536C8.77279 43.819 9.38765 43.7622 9.7337 43.3267L11.9194 40.5763C12.2654 40.1408 12.2117 39.4916 11.7992 39.1262C11.3868 38.7608 10.772 38.8176 10.4259 39.253L8.24023 42.0035Z" fill="#34C347"/>
<path d="M29.1416 41.246C29.0315 41.2884 28.919 41.3082 28.8085 41.3082C28.4103 41.3082 28.0363 41.0487 27.8924 40.6309L25.0028 32.2483C24.9503 32.0958 24.934 31.9387 24.9494 31.7876C25.5109 31.6274 26.045 31.3967 26.5425 31.105C26.6709 31.2175 26.7736 31.3664 26.8348 31.5441L29.7244 39.9267C29.9084 40.461 29.6476 41.0516 29.1416 41.246Z" fill="#34C347"/>
<path d="M30.0193 46.8096C30.2035 47.3438 30.7628 47.6192 31.2687 47.4248C31.7746 47.2304 32.0355 46.6397 31.8514 46.1055L30.6884 42.7316C30.5042 42.1974 29.9449 41.922 29.439 42.1164C28.9331 42.3108 28.6722 42.9015 28.8564 43.4357L30.0193 46.8096Z" fill="#34C347"/>
<path d="M39.8311 27.3291C39.7479 27.8283 39.3364 28.1798 38.8724 28.1798C38.8162 28.1798 38.7594 28.1747 38.702 28.164L30.3821 26.615C30.2308 26.5869 30.0939 26.5232 29.9777 26.4334C30.1217 25.8583 30.2028 25.2562 30.2129 24.6358C30.3699 24.5743 30.544 24.5547 30.7207 24.5876L39.0404 26.1366C39.5707 26.2354 39.9247 26.7692 39.8311 27.3291Z" fill="#34C347"/>
<path d="M44.8415 29.3061C45.3717 29.4048 45.8773 29.031 45.9708 28.4712C46.0643 27.9114 45.7103 27.3775 45.1801 27.2788L41.8314 26.6553C41.3012 26.5566 40.7956 26.9304 40.7022 27.4902C40.6087 28.0501 40.9627 28.5839 41.4929 28.6826L44.8415 29.3061Z" fill="#34C347"/>
<path d="M34.1049 11.3721C34.1049 11.6057 34.0302 11.8403 33.8768 12.0332L28.4464 18.8668C28.3472 18.9917 28.2259 19.0854 28.0936 19.1469C27.6874 18.7201 27.2325 18.3449 26.7389 18.0307C26.7671 17.8568 26.838 17.6886 26.953 17.5436L32.3834 10.71C32.7294 10.2745 33.3443 10.2177 33.7567 10.5832C33.9864 10.7868 34.1049 11.0785 34.1049 11.3721Z" fill="#34C347"/>
<path d="M37.8859 6.99651C38.2319 6.56104 38.1781 5.9118 37.7657 5.54639C37.3533 5.18099 36.7384 5.23779 36.3924 5.67326L34.2067 8.42372C33.8607 8.85919 33.9144 9.50843 34.3269 9.87384C34.7393 10.2392 35.3541 10.1824 35.7002 9.74697L37.8859 6.99651Z" fill="#34C347"/>
<path d="M18.9548 18.3295C18.4848 18.6795 18.0565 19.0884 17.6799 19.5454C17.5224 19.4859 17.377 19.383 17.2617 19.2378L15.6897 17.2597C15.3435 16.8243 15.3974 16.175 15.8098 15.8095C15.9925 15.6478 16.2147 15.5688 16.4359 15.5688C16.714 15.5688 16.9903 15.6938 17.1831 15.9363L18.7551 17.9146C18.8541 18.0392 18.9204 18.1816 18.9548 18.3295Z" fill="#77D4FD"/>
<path d="M9.31834 6.04434C8.97228 5.60887 8.35742 5.55207 7.94501 5.91748C7.5326 6.28288 7.47881 6.93212 7.82486 7.3676L13.911 15.0263C14.257 15.4618 14.8719 15.5186 15.2843 15.1532C15.6967 14.7878 15.7505 14.1385 15.4044 13.7031L9.31834 6.04434Z" fill="#77D4FD"/>
<path d="M16.3088 26.9551C16.1815 27.0689 16.0249 27.1495 15.8489 27.1824L13.4405 27.6307C12.9103 27.7295 12.4048 27.3557 12.3112 26.7958C12.3011 26.7353 12.2963 26.675 12.2963 26.6157C12.2963 26.1255 12.629 25.6915 13.1019 25.6033L15.5103 25.155C15.662 25.1267 15.812 25.1371 15.9507 25.1799C16.0025 25.796 16.1247 26.3908 16.3088 26.9551Z" fill="#77D4FD"/>
<path d="M10.3819 26.1091L1.05746 27.8452C0.527274 27.9439 0.173258 28.4778 0.266745 29.0376C0.360231 29.5974 0.865818 29.9712 1.396 29.8725L10.7204 28.1364C11.2506 28.0377 11.6046 27.5039 11.5112 26.944C11.4177 26.3842 10.9121 26.0104 10.3819 26.1091Z" fill="#77D4FD"/>
<path d="M21.6764 32.4448L20.8401 34.8713C20.656 35.4056 20.0966 35.6811 19.5906 35.4867C19.1947 35.3344 18.9489 34.9396 18.9489 34.5194C18.9489 34.4024 18.968 34.2836 19.0081 34.1674L19.8444 31.7408C19.8969 31.5883 19.9799 31.4569 20.0838 31.3516C20.5989 31.6038 21.1473 31.7931 21.72 31.91C21.7495 32.0834 21.7376 32.2673 21.6764 32.4448Z" fill="#77D4FD"/>
<path d="M18.0529 36.9065L14.8146 46.3013C14.6304 46.8355 14.8913 47.4262 15.3972 47.6206C15.9031 47.815 16.4625 47.5396 16.6466 47.0054L19.8849 37.6106C20.0691 37.0764 19.8082 36.4858 19.3023 36.2913C18.7964 36.0969 18.237 36.3723 18.0529 36.9065Z" fill="#77D4FD"/>
<path d="M30.3326 33.1905C30.1499 33.3523 29.9278 33.4312 29.7065 33.4312C29.4284 33.4312 29.1522 33.3063 28.9594 33.0637L27.3874 31.0855C27.2883 30.9608 27.2221 30.8184 27.1877 30.6705C27.6577 30.3205 28.0859 29.9116 28.4626 29.4546C28.6201 29.5141 28.7654 29.617 28.8807 29.7623L30.4527 31.7403C30.7989 32.1758 30.7451 32.825 30.3326 33.1905Z" fill="#77D4FD"/>
<path d="M32.2349 33.9735C31.8888 33.5381 31.274 33.4813 30.8616 33.8467C30.4492 34.2121 30.3954 34.8613 30.7414 35.2968L36.8275 42.9555C37.1736 43.391 37.7884 43.4478 38.2008 43.0824C38.6133 42.717 38.667 42.0677 38.321 41.6323L32.2349 33.9735Z" fill="#77D4FD"/>
<path d="M33.8466 22.3834C33.8466 22.8736 33.5139 23.3076 33.041 23.3958L30.6326 23.8441C30.4809 23.8724 30.3309 23.862 30.1922 23.8191C30.1404 23.2031 30.0182 22.6083 29.8341 22.044C29.9614 21.9302 30.118 21.8496 30.294 21.8167L32.7024 21.3684C33.2326 21.2696 33.7381 21.6434 33.8317 22.2033C33.8418 22.2638 33.8466 22.3241 33.8466 22.3834Z" fill="#77D4FD"/>
<path d="M44.7544 19.1262L35.43 20.8623C34.8998 20.961 34.5458 21.4949 34.6392 22.0547C34.7327 22.6145 35.2383 22.9883 35.7685 22.8896L45.0929 21.1535C45.6231 21.0548 45.9771 20.521 45.8837 19.9611C45.7902 19.4013 45.2846 19.0275 44.7544 19.1262Z" fill="#77D4FD"/>
<path d="M27.2175 14.4803C27.2175 14.5973 27.1985 14.7161 27.1584 14.8323L26.3221 17.2589C26.2696 17.4114 26.1866 17.5428 26.0827 17.6482C25.5676 17.3959 25.0192 17.2066 24.4465 17.0897C24.4167 16.9164 24.4289 16.7324 24.4901 16.5549L25.3264 14.1284C25.5105 13.5941 26.0699 13.3186 26.5758 13.513C26.9718 13.6653 27.2175 14.0599 27.2175 14.4803Z" fill="#77D4FD"/>
<path d="M29.5013 1.99442L26.2629 11.3892C26.0788 11.9234 26.3396 12.5141 26.8455 12.7085C27.3514 12.9029 27.9108 12.6275 28.095 12.0933L31.3333 2.6985C31.5174 2.16432 31.2566 1.57366 30.7507 1.37923C30.2448 1.1848 29.6854 1.46023 29.5013 1.99442Z" fill="#77D4FD"/>
<path d="M23.7726 9.64894V16.5249C23.7726 16.6878 23.7368 16.8417 23.6731 16.9785C23.4748 16.9608 23.274 16.9519 23.0713 16.9519C22.6917 16.9519 22.3191 16.9831 21.9555 17.0434C21.8714 16.8911 21.823 16.7139 21.823 16.5249V9.64894C21.823 9.08054 22.2595 8.61963 22.7978 8.61963C23.0672 8.61963 23.3106 8.73486 23.4872 8.92126C23.6635 9.10741 23.7726 9.36474 23.7726 9.64894Z" fill="#0974FB"/>
<path d="M23.7726 1.02931C23.7726 0.460836 23.3362 0 22.7978 0C22.2594 0 21.823 0.460836 21.823 1.02931V6.68081C21.823 7.24928 22.2594 7.71012 22.7978 7.71012C23.3362 7.71012 23.7726 7.24928 23.7726 6.68081V1.02931Z" fill="#0974FB"/>
<path d="M17.1878 20.189C16.8613 20.6836 16.5894 21.2212 16.3815 21.7923C16.2148 21.793 16.0456 21.7487 15.8909 21.6543L10.2516 18.2163C9.78557 17.9321 9.62577 17.3025 9.89492 16.8104C10.1641 16.318 10.7604 16.1492 11.2264 16.4334L16.8657 19.8714C16.9991 19.9527 17.1073 20.0624 17.1878 20.189Z" fill="#0974FB"/>
<path d="M4.16024 12.1239C3.69401 11.8397 3.09783 12.0084 2.82865 12.5007C2.55946 12.993 2.71921 13.6225 3.18545 13.9067L7.8206 16.7325C8.28684 17.0167 8.88302 16.8481 9.1522 16.3557C9.42138 15.8634 9.26164 15.2339 8.7954 14.9497L4.16024 12.1239Z" fill="#0974FB"/>
<path d="M17.5048 29.2479C17.4221 29.4016 17.3008 29.5345 17.1454 29.6294L11.5061 33.0671C11.0398 33.3515 10.4438 33.1828 10.1746 32.6904C10.0859 32.5282 10.0437 32.3513 10.0437 32.1765C10.0437 31.8209 10.2186 31.475 10.5313 31.2845L16.1706 27.8465C16.3038 27.7652 16.4475 27.7211 16.591 27.7109C16.837 28.2631 17.1447 28.7787 17.5048 29.2479Z" fill="#0974FB"/>
<path d="M8.10014 32.768L3.46499 35.5937C2.99875 35.878 2.839 36.5075 3.10819 36.9998C3.37737 37.4921 3.97355 37.6608 4.43978 37.3766L9.07494 34.5508C9.54118 34.2666 9.70092 33.6371 9.43174 33.1447C9.16256 32.6524 8.56638 32.4838 8.10014 32.768Z" fill="#0974FB"/>
<path d="M24.3188 32.4751V39.351C24.3188 39.9194 23.8823 40.3803 23.344 40.3803C23.0746 40.3803 22.8312 40.2651 22.6546 40.0787C22.4783 39.8925 22.3692 39.6352 22.3692 39.351V32.4751C22.3692 32.3122 22.405 32.1582 22.4687 32.0214C22.667 32.0391 22.8678 32.048 23.0705 32.048C23.4501 32.048 23.8227 32.0168 24.1863 31.9565C24.2704 32.1088 24.3188 32.286 24.3188 32.4751Z" fill="#0974FB"/>
<path d="M24.3188 42.3193C24.3188 41.7509 23.8824 41.29 23.344 41.29C22.8056 41.29 22.3692 41.7509 22.3692 42.3193V47.9708C22.3692 48.5393 22.8056 49.0002 23.344 49.0002C23.8824 49.0002 24.3188 48.5393 24.3188 47.9708V42.3193Z" fill="#0974FB"/>
<path d="M36.2167 32.1904C36.036 32.5206 35.7084 32.7053 35.3714 32.7053C35.2061 32.7053 35.0385 32.6608 34.8851 32.5673L29.2457 29.1294C29.1122 29.048 29.0038 28.9384 28.9238 28.8118C29.2503 28.3172 29.5222 27.7796 29.7301 27.2085C29.8968 27.2078 30.0657 27.2521 30.2205 27.3465L35.8599 30.7845C36.326 31.0686 36.4858 31.6983 36.2167 32.1904Z" fill="#0974FB"/>
<path d="M38.3058 32.269C37.8395 31.9847 37.2434 32.1534 36.9742 32.6457C36.705 33.138 36.8647 33.7675 37.331 34.0518L41.9661 36.8775C42.4324 37.1617 43.0286 36.9931 43.2977 36.5008C43.5669 36.0085 43.4072 35.3789 42.9409 35.0947L38.3058 32.269Z" fill="#0974FB"/>
<path d="M36.1054 16.8242C36.1054 17.1798 35.9305 17.5257 35.6178 17.7163L29.9786 21.1542C29.8454 21.2356 29.7016 21.2796 29.5581 21.2898C29.3121 20.7376 29.0044 20.222 28.6443 19.7528C28.727 19.5991 28.8483 19.4662 29.0038 19.3713L34.643 15.9336C35.1093 15.6492 35.7054 15.8179 35.9745 16.3103C36.0632 16.4725 36.1054 16.6494 36.1054 16.8242Z" fill="#0974FB"/>
<path d="M41.7146 11.6235L37.0795 14.4492C36.6132 14.7335 36.4535 15.363 36.7227 15.8553C36.9919 16.3476 37.588 16.5163 38.0543 16.232L42.6894 13.4063C43.1557 13.122 43.3154 12.4925 43.0462 12.0002C42.7771 11.5079 42.1809 11.3392 41.7146 11.6235Z" fill="#0974FB"/>
</svg>
