<svg width="155" height="49" viewBox="0 0 155 49" fill="none" xmlns="http://www.w3.org/2000/svg">
<path d="M21.1987 17.214C20.6373 17.3742 20.1031 17.6049 19.6056 17.8966C19.4772 17.7841 19.3745 17.6352 19.3133 17.4575L16.4238 9.07489C16.2397 8.54063 16.5006 7.94996 17.0065 7.75557C17.1166 7.71321 17.2291 7.69336 17.3396 7.69336C17.7379 7.69336 18.1118 7.95286 18.2558 8.37069L21.1453 16.7533C21.1978 16.9058 21.2141 17.0629 21.1987 17.214Z" fill="#34C347"/>
<path d="M16.121 2.19088C15.9369 1.65669 15.3775 1.38126 14.8716 1.57569C14.3657 1.77012 14.1048 2.36078 14.289 2.89497L15.4519 6.2689C15.6361 6.80309 16.1955 7.07852 16.7014 6.88409C17.2073 6.68966 17.4681 6.099 17.284 5.56482L16.121 2.19088Z" fill="#34C347"/>
<path d="M16.1572 22.5681C16.0132 23.1433 15.932 23.7453 15.9219 24.3658C15.7649 24.4273 15.5909 24.4469 15.4141 24.4139L7.0942 22.8649C6.56416 22.7661 6.21019 22.2324 6.3035 21.6724C6.38695 21.1733 6.79823 20.8218 7.26247 20.8218C7.31864 20.8218 7.3755 20.8269 7.43281 20.8375L15.7527 22.3866C15.9041 22.4146 16.0409 22.4783 16.1572 22.5681Z" fill="#34C347"/>
<path d="M1.29853 19.6953C0.768345 19.5966 0.262758 19.9704 0.169272 20.5303C0.0757856 21.0901 0.429802 21.624 0.959989 21.7227L4.30866 22.3462C4.83885 22.4449 5.34443 22.0711 5.43792 21.5112C5.53141 20.9514 5.17739 20.4175 4.6472 20.3188L1.29853 19.6953Z" fill="#34C347"/>
<path d="M19.386 30.9692C19.3578 31.143 19.287 31.3113 19.1719 31.4563L13.7415 38.2899C13.3956 38.7254 12.7807 38.7822 12.3683 38.4167C12.1385 38.2131 12.02 37.9214 12.02 37.6278C12.02 37.3942 12.0948 37.1596 12.2481 36.9667L17.6785 30.1331C17.7778 30.0082 17.8991 29.9145 18.0313 29.853C18.4376 30.2798 18.8924 30.655 19.386 30.9692Z" fill="#34C347"/>
<path d="M8.24004 42.0035C7.89399 42.439 7.94778 43.0882 8.36019 43.4536C8.77261 43.819 9.38747 43.7622 9.73352 43.3267L11.9192 40.5763C12.2653 40.1408 12.2115 39.4916 11.7991 39.1262C11.3866 38.7608 10.7718 38.8176 10.4257 39.253L8.24004 42.0035Z" fill="#34C347"/>
<path d="M29.1416 41.246C29.0315 41.2884 28.9189 41.3082 28.8084 41.3082C28.4102 41.3082 28.0363 41.0487 27.8923 40.6309L25.0028 32.2483C24.9503 32.0958 24.934 31.9387 24.9494 31.7876C25.5108 31.6274 26.045 31.3967 26.5425 31.105C26.6709 31.2175 26.7736 31.3664 26.8348 31.5441L29.7243 39.9267C29.9084 40.461 29.6475 41.0516 29.1416 41.246Z" fill="#34C347"/>
<path d="M30.0192 46.8096C30.2033 47.3438 30.7627 47.6192 31.2686 47.4248C31.7745 47.2304 32.0353 46.6397 31.8512 46.1055L30.6882 42.7316C30.5041 42.1974 29.9447 41.922 29.4388 42.1164C28.9329 42.3108 28.672 42.9015 28.8562 43.4357L30.0192 46.8096Z" fill="#34C347"/>
<path d="M39.831 27.3291C39.7478 27.8283 39.3362 28.1798 38.8722 28.1798C38.8161 28.1798 38.7592 28.1747 38.7019 28.164L30.3819 26.615C30.2306 26.5869 30.0938 26.5232 29.9775 26.4334C30.1215 25.8583 30.2027 25.2562 30.2128 24.6358C30.3698 24.5743 30.5438 24.5547 30.7206 24.5876L39.0403 26.1366C39.5705 26.2354 39.9245 26.7692 39.831 27.3291Z" fill="#34C347"/>
<path d="M44.8416 29.3061C45.3718 29.4048 45.8774 29.031 45.9709 28.4712C46.0644 27.9114 45.7103 27.3775 45.1801 27.2788L41.8315 26.6553C41.3013 26.5566 40.7957 26.9304 40.7022 27.4902C40.6087 28.0501 40.9628 28.5839 41.4929 28.6826L44.8416 29.3061Z" fill="#34C347"/>
<path d="M34.1048 11.3721C34.1048 11.6057 34.03 11.8403 33.8767 12.0332L28.4463 18.8668C28.347 18.9917 28.2257 19.0854 28.0934 19.1469C27.6872 18.7201 27.2324 18.3449 26.7388 18.0307C26.767 17.8568 26.8378 17.6886 26.9529 17.5436L32.3833 10.71C32.7292 10.2745 33.3441 10.2177 33.7565 10.5832C33.9862 10.7868 34.1048 11.0785 34.1048 11.3721Z" fill="#34C347"/>
<path d="M37.8859 6.99651C38.232 6.56104 38.1782 5.9118 37.7658 5.54639C37.3534 5.18099 36.7385 5.23779 36.3925 5.67326L34.2068 8.42372C33.8607 8.85919 33.9145 9.50843 34.3269 9.87384C34.7393 10.2392 35.3542 10.1824 35.7002 9.74697L37.8859 6.99651Z" fill="#34C347"/>
<path d="M18.9546 18.3295C18.4847 18.6795 18.0564 19.0884 17.6797 19.5454C17.5222 19.4859 17.3769 19.383 17.2616 19.2378L15.6896 17.2597C15.3434 16.8243 15.3973 16.175 15.8097 15.8095C15.9924 15.6478 16.2146 15.5688 16.4358 15.5688C16.7139 15.5688 16.9901 15.6938 17.1829 15.9363L18.755 17.9146C18.854 18.0392 18.9203 18.1816 18.9546 18.3295Z" fill="#77D4FD"/>
<path d="M9.31831 6.04434C8.97225 5.60887 8.35739 5.55207 7.94498 5.91748C7.53257 6.28288 7.47878 6.93212 7.82483 7.3676L13.9109 15.0263C14.257 15.4618 14.8718 15.5186 15.2842 15.1532C15.6967 14.7878 15.7505 14.1385 15.4044 13.7031L9.31831 6.04434Z" fill="#77D4FD"/>
<path d="M16.3088 26.9551C16.1816 27.0689 16.025 27.1495 15.8489 27.1824L13.4406 27.6307C12.9103 27.7295 12.4048 27.3557 12.3113 26.7958C12.3012 26.7353 12.2964 26.675 12.2964 26.6157C12.2964 26.1255 12.629 25.6915 13.102 25.6033L15.5103 25.155C15.6621 25.1267 15.812 25.1371 15.9507 25.1799C16.0025 25.796 16.1247 26.3908 16.3088 26.9551Z" fill="#77D4FD"/>
<path d="M10.3821 26.1091L1.05764 27.8452C0.527458 27.9439 0.173441 28.4778 0.266928 29.0376C0.360414 29.5974 0.866001 29.9712 1.39619 29.8725L10.7206 28.1364C11.2508 28.0377 11.6048 27.5039 11.5113 26.944C11.4179 26.3842 10.9123 26.0104 10.3821 26.1091Z" fill="#77D4FD"/>
<path d="M21.6767 32.4448L20.8404 34.8713C20.6563 35.4056 20.0969 35.6811 19.5909 35.4867C19.195 35.3344 18.9492 34.9396 18.9492 34.5194C18.9492 34.4024 18.9682 34.2836 19.0084 34.1674L19.8447 31.7408C19.8972 31.5883 19.9802 31.4569 20.084 31.3516C20.5992 31.6038 21.1476 31.7931 21.7202 31.91C21.7498 32.0834 21.7379 32.2673 21.6767 32.4448Z" fill="#77D4FD"/>
<path d="M18.0532 36.9065L14.8148 46.3013C14.6307 46.8355 14.8916 47.4262 15.3975 47.6206C15.9034 47.815 16.4627 47.5396 16.6469 47.0054L19.8852 37.6106C20.0693 37.0764 19.8085 36.4858 19.3026 36.2913C18.7967 36.0969 18.2373 36.3723 18.0532 36.9065Z" fill="#77D4FD"/>
<path d="M30.3329 33.1905C30.1502 33.3523 29.9281 33.4312 29.7068 33.4312C29.4287 33.4312 29.1525 33.3063 28.9597 33.0637L27.3877 31.0855C27.2886 30.9608 27.2224 30.8184 27.188 30.6705C27.658 30.3205 28.0862 29.9116 28.4629 29.4546C28.6204 29.5141 28.7657 29.617 28.881 29.7623L30.4531 31.7403C30.7992 32.1758 30.7454 32.825 30.3329 33.1905Z" fill="#77D4FD"/>
<path d="M32.2353 33.9735C31.8892 33.5381 31.2744 33.4813 30.862 33.8467C30.4496 34.2121 30.3958 34.8613 30.7418 35.2968L36.8279 42.9555C37.174 43.391 37.7888 43.4478 38.2012 43.0824C38.6137 42.717 38.6674 42.0677 38.3214 41.6323L32.2353 33.9735Z" fill="#77D4FD"/>
<path d="M33.8464 22.3834C33.8464 22.8736 33.5138 23.3076 33.0408 23.3958L30.6325 23.8441C30.4807 23.8724 30.3308 23.862 30.1921 23.8191C30.1403 23.2031 30.0181 22.6083 29.834 22.044C29.9612 21.9302 30.1178 21.8496 30.2939 21.8167L32.7022 21.3684C33.2325 21.2696 33.738 21.6434 33.8315 22.2033C33.8416 22.2638 33.8464 22.3241 33.8464 22.3834Z" fill="#77D4FD"/>
<path d="M44.7546 19.1262L35.4302 20.8623C34.9 20.961 34.546 21.4949 34.6395 22.0547C34.733 22.6145 35.2386 22.9883 35.7687 22.8896L45.0932 21.1535C45.6234 21.0548 45.9774 20.521 45.8839 19.9611C45.7904 19.4013 45.2848 19.0275 44.7546 19.1262Z" fill="#77D4FD"/>
<path d="M27.2173 14.4803C27.2173 14.5973 27.1982 14.7161 27.1581 14.8323L26.3218 17.2589C26.2693 17.4114 26.1863 17.5428 26.0824 17.6482C25.5673 17.3959 25.0189 17.2066 24.4462 17.0897C24.4164 16.9164 24.4286 16.7324 24.4898 16.5549L25.3261 14.1284C25.5102 13.5941 26.0696 13.3186 26.5756 13.513C26.9715 13.6653 27.2173 14.0599 27.2173 14.4803Z" fill="#77D4FD"/>
<path d="M29.5009 1.99442L26.2626 11.3892C26.0785 11.9234 26.3393 12.5141 26.8452 12.7085C27.3511 12.9029 27.9105 12.6275 28.0946 12.0933L31.333 2.6985C31.5171 2.16432 31.2563 1.57366 30.7504 1.37923C30.2445 1.1848 29.6851 1.46023 29.5009 1.99442Z" fill="#77D4FD"/>
<path d="M23.7724 9.64894V16.5249C23.7724 16.6878 23.7366 16.8417 23.6729 16.9785C23.4745 16.9608 23.2737 16.9519 23.0711 16.9519C22.6914 16.9519 22.3189 16.9831 21.9553 17.0434C21.8711 16.8911 21.8228 16.7139 21.8228 16.5249V9.64894C21.8228 9.08054 22.2593 8.61963 22.7976 8.61963C23.0669 8.61963 23.3104 8.73486 23.4869 8.92126C23.6632 9.10741 23.7724 9.36474 23.7724 9.64894Z" fill="#0974FB"/>
<path d="M23.7723 1.02931C23.7723 0.460836 23.3359 0 22.7976 0C22.2592 0 21.8228 0.460836 21.8228 1.02931V6.68081C21.8228 7.24928 22.2592 7.71012 22.7976 7.71012C23.3359 7.71012 23.7723 7.24928 23.7723 6.68081V1.02931Z" fill="#0974FB"/>
<path d="M17.1878 20.189C16.8613 20.6836 16.5894 21.2212 16.3815 21.7923C16.2148 21.793 16.0456 21.7487 15.8909 21.6543L10.2516 18.2163C9.78553 17.9321 9.62574 17.3025 9.89489 16.8104C10.164 16.318 10.7603 16.1492 11.2264 16.4334L16.8657 19.8714C16.9991 19.9527 17.1073 20.0624 17.1878 20.189Z" fill="#0974FB"/>
<path d="M4.16031 12.1239C3.69407 11.8397 3.09789 12.0084 2.82871 12.5007C2.55952 12.993 2.71927 13.6225 3.18551 13.9067L7.82066 16.7325C8.2869 17.0167 8.88308 16.8481 9.15226 16.3557C9.42144 15.8634 9.2617 15.2339 8.79546 14.9497L4.16031 12.1239Z" fill="#0974FB"/>
<path d="M17.5041 29.2479C17.4214 29.4016 17.3001 29.5345 17.1446 29.6294L11.5054 33.0671C11.0391 33.3515 10.443 33.1828 10.1739 32.6904C10.0852 32.5282 10.043 32.3513 10.043 32.1765C10.043 31.8209 10.2179 31.475 10.5306 31.2845L16.1698 27.8465C16.303 27.7652 16.4468 27.7211 16.5903 27.7109C16.8363 28.2631 17.144 28.7787 17.5041 29.2479Z" fill="#0974FB"/>
<path d="M8.09996 32.768L3.4648 35.5937C2.99857 35.878 2.83882 36.5075 3.108 36.9998C3.37719 37.4921 3.97336 37.6608 4.4396 37.3766L9.07475 34.5508C9.54099 34.2666 9.70074 33.6371 9.43156 33.1447C9.16237 32.6524 8.5662 32.4838 8.09996 32.768Z" fill="#0974FB"/>
<path d="M24.3187 32.4751V39.351C24.3187 39.9194 23.8822 40.3803 23.3439 40.3803C23.0746 40.3803 22.8311 40.2651 22.6546 40.0787C22.4783 39.8925 22.3691 39.6352 22.3691 39.351V32.4751C22.3691 32.3122 22.4049 32.1582 22.4686 32.0214C22.6669 32.0391 22.8678 32.048 23.0704 32.048C23.4501 32.048 23.8226 32.0168 24.1862 31.9565C24.2704 32.1088 24.3187 32.286 24.3187 32.4751Z" fill="#0974FB"/>
<path d="M24.3187 42.3193C24.3187 41.7509 23.8823 41.29 23.3439 41.29C22.8056 41.29 22.3691 41.7509 22.3691 42.3193V47.9708C22.3691 48.5393 22.8056 49.0002 23.3439 49.0002C23.8823 49.0002 24.3187 48.5393 24.3187 47.9708V42.3193Z" fill="#0974FB"/>
<path d="M36.2167 32.1904C36.036 32.5206 35.7084 32.7053 35.3714 32.7053C35.2061 32.7053 35.0385 32.6608 34.8852 32.5673L29.2457 29.1294C29.1123 29.048 29.0038 28.9384 28.9238 28.8118C29.2503 28.3172 29.5222 27.7796 29.7301 27.2085C29.8968 27.2078 30.0658 27.2521 30.2205 27.3465L35.86 30.7845C36.326 31.0686 36.4858 31.6983 36.2167 32.1904Z" fill="#0974FB"/>
<path d="M38.3058 32.269C37.8396 31.9847 37.2434 32.1534 36.9742 32.6457C36.705 33.138 36.8648 33.7675 37.331 34.0518L41.9662 36.8775C42.4324 37.1617 43.0286 36.9931 43.2978 36.5008C43.5669 36.0085 43.4072 35.3789 42.941 35.0947L38.3058 32.269Z" fill="#0974FB"/>
<path d="M36.1052 16.8242C36.1052 17.1798 35.9303 17.5257 35.6176 17.7163L29.9783 21.1542C29.8451 21.2356 29.7014 21.2796 29.5579 21.2898C29.3119 20.7376 29.0042 20.222 28.644 19.7528C28.7268 19.5991 28.8481 19.4662 29.0035 19.3713L34.6428 15.9336C35.1091 15.6492 35.7051 15.8179 35.9743 16.3103C36.063 16.4725 36.1052 16.6494 36.1052 16.8242Z" fill="#0974FB"/>
<path d="M41.7142 11.6235L37.0791 14.4492C36.6128 14.7335 36.4531 15.363 36.7223 15.8553C36.9914 16.3476 37.5876 16.5163 38.0539 16.232L42.689 13.4063C43.1553 13.122 43.315 12.4925 43.0458 12.0002C42.7766 11.5079 42.1805 11.3392 41.7142 11.6235Z" fill="#0974FB"/>
<path d="M130.006 14.8728C129.372 14.8728 128.825 14.6283 128.36 14.1379C127.896 13.6474 127.663 13.0679 127.663 12.4005C127.663 11.7331 127.896 11.1485 128.36 10.6479C128.825 10.1461 129.372 9.89648 130.006 9.89648C130.639 9.89648 131.216 10.1461 131.68 10.6479C132.144 11.1485 132.377 11.7331 132.377 12.4005C132.377 13.0679 132.144 13.6474 131.68 14.1379C131.215 14.6283 130.658 14.8728 130.006 14.8728Z" fill="#0974FB"/>
<path d="M66.0343 16.7525H69.7691V31.653C69.7691 34.0744 69.0128 35.9212 67.5013 37.1938C65.9898 38.4664 64.1658 39.1033 62.0319 39.1033C60.4313 39.1033 59.0222 38.7797 57.8074 38.1326C56.5914 37.4855 55.6577 36.5366 55.0052 35.2846L58.2671 33.3129C59.0174 34.7726 60.3118 35.5037 62.1502 35.5037C63.3554 35.5037 64.3048 35.1698 64.996 34.5024C65.6883 33.8338 66.0345 32.8846 66.0345 31.653V29.9628C64.9077 31.5486 63.3263 32.3422 61.29 32.3422C59.2538 32.3422 57.4406 31.5651 56.0282 30.01C54.6155 28.4561 53.9087 26.5619 53.9087 24.3278C53.9087 22.0936 54.6203 20.2275 56.0426 18.662C57.4661 17.0965 59.2153 16.3143 61.29 16.3143C63.3648 16.3143 64.9077 17.1079 66.0345 18.6937L66.0343 16.7525ZM58.9037 27.4113C59.6841 28.215 60.677 28.6164 61.8834 28.6164C63.0897 28.6164 64.0812 28.2152 64.863 27.4113C65.6434 26.6088 66.0343 25.5795 66.0343 24.3275C66.0343 23.0755 65.6434 22.0794 64.863 21.2757C64.0812 20.4732 63.0886 20.0706 61.8834 20.0706C60.6782 20.0706 59.6843 20.4732 58.9037 21.2757C58.1233 22.0794 57.7325 23.097 57.7325 24.3275C57.7325 25.558 58.1233 26.6088 58.9037 27.4113Z" fill="black"/>
<path d="M74.9864 26.2382C75.5004 28.1998 76.8936 29.1806 79.1662 29.1806C80.6282 29.1806 81.7357 28.6585 82.4861 27.6151L85.5693 29.4927C84.1074 31.7268 81.9528 32.8428 79.1071 32.8428C76.6559 32.8428 74.6896 32.0606 73.207 30.4951C71.7244 28.9296 70.9836 26.9579 70.9836 24.5785C70.9836 22.1992 71.7147 20.2541 73.1778 18.6772C74.6398 17.1028 76.517 16.3143 78.8102 16.3143C80.984 16.3143 82.7777 17.1078 84.1915 18.6937C85.6042 20.2795 86.311 22.2411 86.311 24.5785C86.311 25.1007 86.2615 25.6536 86.1627 26.2382H74.9864ZM74.9273 23.1072H82.4861C82.269 22.0423 81.8201 21.25 81.1374 20.7278C80.4558 20.2069 79.6802 19.9457 78.8104 19.9457C77.7827 19.9457 76.9321 20.2222 76.2616 20.7748C75.5885 21.3277 75.1446 22.1048 74.9273 23.1072Z" fill="black"/>
<path d="M95.7368 16.3143C97.357 16.3143 98.6958 16.8888 99.7538 18.0365C100.81 19.1841 101.34 20.77 101.34 22.794V32.4046H97.5161V23.2946C97.5161 22.2515 97.2483 21.4541 96.715 20.9C96.1818 20.3471 95.4702 20.0709 94.5811 20.0709C93.5919 20.0709 92.8019 20.3945 92.2095 21.0416C91.6159 21.6886 91.3193 22.6594 91.3193 23.9521V32.4048H87.4953V16.7525H91.3193V18.5051C92.2482 17.0454 93.721 16.3143 95.7368 16.3143Z" fill="black"/>
<path d="M106.354 26.2382C106.868 28.1998 108.261 29.1806 110.534 29.1806C111.996 29.1806 113.103 28.6585 113.854 27.6151L116.937 29.4927C115.475 31.7268 113.32 32.8428 110.475 32.8428C108.023 32.8428 106.057 32.0606 104.575 30.4951C103.092 28.9296 102.351 26.9579 102.351 24.5785C102.351 22.1992 103.082 20.2541 104.545 18.6772C106.007 17.1028 107.885 16.3143 110.178 16.3143C112.352 16.3143 114.145 17.1078 115.559 18.6937C116.972 20.2795 117.679 22.2411 117.679 24.5785C117.679 25.1007 117.629 25.6536 117.53 26.2382H106.354ZM106.295 23.1072H113.854C113.637 22.0423 113.188 21.25 112.505 20.7278C111.823 20.2069 111.048 19.9457 110.178 19.9457C109.15 19.9457 108.3 20.2222 107.629 20.7748C106.956 21.3277 106.512 22.1048 106.295 23.1072Z" fill="black"/>
<path d="M126.893 20.6335H123.543V27.1451C123.543 27.6878 123.671 28.0851 123.928 28.3349C124.185 28.5859 124.56 28.7259 125.055 28.7578C125.548 28.7883 126.161 28.7844 126.893 28.7426V32.4047C124.265 32.7179 122.412 32.457 121.335 31.6225C120.257 30.7869 119.718 29.2955 119.718 27.1454V20.6338H117.139V16.7526H119.718V13.5911L123.543 12.3695V16.7526H126.893V20.6335Z" fill="black"/>
<path d="M131.933 16.7525H128.109V32.4046H131.933V16.7525Z" fill="black"/>
<path d="M154.737 21.447C154.737 24.2848 153.888 26.7458 152.19 28.831L154.322 31.1838L151.416 33.9071L149.162 31.4181C147.561 32.3682 145.822 32.8422 143.945 32.8422C140.961 32.8422 138.422 31.7417 136.326 29.5393C134.231 27.3384 133.184 24.6405 133.184 21.447C133.184 18.2535 134.231 15.5571 136.326 13.3561C138.422 11.1537 140.961 10.0532 143.945 10.0532C146.93 10.0532 149.475 11.1537 151.579 13.3561C153.684 15.5571 154.737 18.255 154.737 21.447ZM143.956 28.6158C144.727 28.6158 145.499 28.4873 146.272 28.2299L142.849 24.4533L145.754 21.73L149.383 25.7322C150.225 24.4814 150.645 23.0534 150.645 21.4472C150.645 19.3608 150.004 17.6399 148.719 16.2821C147.434 14.9267 145.843 14.2479 143.946 14.2479C142.048 14.2479 140.457 14.9269 139.172 16.2821C137.888 17.6399 137.246 19.3608 137.246 21.4472C137.246 23.5337 137.889 25.2253 139.176 26.5819C140.462 27.9385 142.055 28.6158 143.956 28.6158Z" fill="black"/>
</svg>
