<svg width="17" height="24" viewBox="0 0 17 24" fill="none" xmlns="http://www.w3.org/2000/svg">
<path d="M4.83414 22.1773H11.9126M15.4518 8.90527V10.6749C15.4518 14.568 12.2665 17.7533 8.37335 17.7533M8.37335 17.7533C4.48022 17.7533 1.29492 14.568 1.29492 10.6749V8.90527M8.37335 17.7533V22.1773" stroke="white" stroke-width="1.76961" stroke-linecap="round" stroke-linejoin="round"/>
<path d="M8.373 0.941939C7.90757 0.939594 7.44629 1.02954 7.01583 1.20657C6.58538 1.3836 6.19428 1.64421 5.86517 1.97332C5.53605 2.30244 5.27545 2.69353 5.09842 3.12399C4.92138 3.55444 4.83144 4.01572 4.83378 4.48115V10.6195C4.83378 12.5661 6.43749 14.214 8.373 14.214C10.3085 14.214 11.9122 12.6103 11.9122 10.6195V4.48115C11.9122 2.49035 10.3638 0.941939 8.373 0.941939Z" stroke="white" stroke-width="1.76961" stroke-linecap="round" stroke-linejoin="round"/>
</svg>
