<svg width="599" height="553" viewBox="0 0 599 553" fill="none" xmlns="http://www.w3.org/2000/svg">
<path d="M103.738 399.824C67.7383 382.444 67.7383 354.267 103.738 336.888L234.105 273.952C270.105 256.573 328.472 256.573 364.471 273.952L494.838 336.888C530.838 354.267 530.838 382.444 494.838 399.824L364.471 462.759C328.472 480.138 270.105 480.138 234.105 462.759L103.738 399.824Z" fill="url(#paint0_linear_291_5757)" fill-opacity="0.3"/>
<path d="M103.738 476.57C67.7383 459.191 67.7383 431.013 103.738 413.634L234.105 350.698C270.105 333.319 328.472 333.319 364.471 350.698L494.838 413.634C530.838 431.013 530.838 459.191 494.838 476.57L364.471 539.505C328.472 556.885 270.105 556.885 234.105 539.505L103.738 476.57Z" fill="url(#paint1_linear_291_5757)" fill-opacity="0.1"/>
<path d="M36.3101 218.28C-12.1034 190.97 -12.1034 146.692 36.3101 119.381L211.631 20.4826C260.044 -6.82754 338.538 -6.82754 386.951 20.4826L562.272 119.381C610.686 146.692 610.686 190.97 562.272 218.28L386.951 317.179C338.538 344.489 260.044 344.489 211.631 317.179L36.3101 218.28Z" fill="url(#paint2_linear_291_5757)" fill-opacity="0.8"/>
<path d="M103.738 323.08C67.7383 305.7 67.7383 277.523 103.738 260.144L234.105 197.208C270.105 179.829 328.472 179.829 364.471 197.208L494.838 260.144C530.838 277.523 530.838 305.7 494.838 323.08L364.471 386.015C328.472 403.394 270.105 403.394 234.105 386.015L103.738 323.08Z" fill="url(#paint3_linear_291_5757)" fill-opacity="0.6"/>
<defs>
<linearGradient id="paint0_linear_291_5757" x1="521.838" y1="368.356" x2="76.7383" y2="368.356" gradientUnits="userSpaceOnUse">
<stop stop-color="#ABDBFC"/>
<stop offset="1" stop-color="#0952B3"/>
</linearGradient>
<linearGradient id="paint1_linear_291_5757" x1="521.838" y1="445.102" x2="76.7383" y2="445.102" gradientUnits="userSpaceOnUse">
<stop stop-color="#ABDBFC"/>
<stop offset="1" stop-color="#0952B3"/>
</linearGradient>
<linearGradient id="paint2_linear_291_5757" x1="598.582" y1="168.831" x2="0" y2="168.831" gradientUnits="userSpaceOnUse">
<stop stop-color="#ABDBFC"/>
<stop offset="1" stop-color="#0952B3"/>
</linearGradient>
<linearGradient id="paint3_linear_291_5757" x1="521.838" y1="291.612" x2="76.7383" y2="291.612" gradientUnits="userSpaceOnUse">
<stop stop-color="#ABDBFC"/>
<stop offset="1" stop-color="#0952B3"/>
</linearGradient>
</defs>
</svg>
